<?xml version="1.0" standalone="no"?>
<!DOCTYPE svg PUBLIC "-//W3C//DTD SVG 20010904//EN"
 "http://www.w3.org/TR/2001/REC-SVG-20010904/DTD/svg10.dtd">
<svg version="1.0" xmlns="http://www.w3.org/2000/svg"
 width="141.000000pt" height="141.000000pt" viewBox="0 0 141.000000 141.000000"
 preserveAspectRatio="xMidYMid meet">
<metadata>
Created by potrace 1.11, written by Peter Selinger 2001-2013
</metadata>
<g transform="translate(0.000000,141.000000) scale(0.100000,-0.100000)"
fill="#000000" stroke="none">
<path d="M43 1287 c-7 -12 -7 -1162 0 -1173 4 -7 193 -11 229 -5 4 0 7 177 7
392 -1 215 1 393 4 395 2 2 81 -151 176 -340 108 -217 178 -347 189 -349 40
-11 110 -7 123 6 8 7 91 165 184 351 l170 337 5 -398 5 -398 105 0 c58 -1 111
1 118 3 18 6 18 1182 0 1183 -7 0 -78 2 -158 3 -138 1 -180 -4 -180 -23 0 -5
-41 -93 -91 -197 -50 -104 -120 -249 -155 -323 -36 -74 -67 -131 -70 -128 -5
5 -154 312 -270 555 -38 79 -58 112 -71 113 -109 5 -316 2 -320 -4z"/>
</g>
</svg>
